<?xml version="1.0" encoding="UTF-8"?>
<svg width="62px" height="62px" viewBox="0 0 62 62" version="1.1" xmlns="http://www.w3.org/2000/svg" xmlns:xlink="http://www.w3.org/1999/xlink">
    <!-- Generator: Sketch 48.2 (47327) - http://www.bohemiancoding.com/sketch -->
    <title>Group 17</title>
    <desc>Created with Sketch.</desc>
    <defs></defs>
    <g id="Landing-B" stroke="none" stroke-width="1" fill="none" fill-rule="evenodd" transform="translate(-81.000000, -2411.000000)">
        <g id="Group-17" transform="translate(81.000000, 2411.000000)">
            <circle id="Oval" fill-opacity="0.1" fill="#51BAFF" cx="31" cy="31" r="31"></circle>
            <g id="Page-1" transform="translate(21.000000, 15.000000)">
                <path d="M9.99444947,0.00158795104 C12.0430154,-0.0281974919 14.0754986,0.361299569 15.9663212,1.14772418 C17.5679423,1.78900032 18.9261943,2.91900541 19.8474498,4.37776176 C20.9673227,6.18873575 21.2889119,8.38291946 20.7339338,10.4396392 C20.3838026,11.8561625 19.5258923,12.9961067 18.5090627,14.0157976 L18.5090627,14.014556 C17.6598294,14.81708 16.7522728,15.555143 15.792527,16.2212192 C15.0960152,16.7297945 14.4168892,17.2631381 13.7390028,17.8089293 C13.2796305,18.2033801 12.9282598,18.70697 12.7184544,19.273846 C12.5471203,19.678204 12.3770321,20.0838322 12.2094039,20.4894287 C11.8282517,21.4680932 11.0597177,21.9121758 10.0515651,21.9754301 C9.43451299,22.0572957 8.80751255,21.9332574 8.26868057,21.623149 C7.37723831,21.066212 6.86322953,20.0652243 6.9302935,19.0158431 C6.9650587,17.7407213 7.47532334,16.5251069 8.36056774,15.6060767 C9.34262582,14.4909644 10.5568969,13.646239 11.7077273,12.7295904 L11.7077273,12.728352 C12.6004091,12.0820905 13.3701827,11.2808049 13.9797656,10.3629179 C14.8153318,8.98110197 14.5546087,6.71118448 13.1305323,5.70394115 L13.1317751,5.70517956 C12.6165267,5.34299112 12.026777,5.10359617 11.4060062,5.00312587 C10.4599274,4.82698848 9.48406723,4.88032602 8.56408305,5.16189689 C7.49633566,5.49804689 6.81225138,6.27329402 6.3106701,7.23833602 C5.94566411,7.94289829 5.61787704,8.67346725 5.19823458,9.34700566 C4.49301403,10.4832028 3.31354632,10.7312984 2.12784898,10.5154651 C1.61012149,10.434838 1.12964469,10.2016446 0.744742003,9.84564192 C0.230733226,9.34081359 -0.0399382281,8.63748974 0.00478167978,7.9180665 C0.0234038504,6.69130635 0.409517506,5.49804689 1.11349849,4.49210548 C2.29671669,2.79398593 3.97652611,1.50273617 5.92335183,0.795601812 C7.22324863,0.295723963 8.60139732,0.0265435796 9.994548,0.00174672206 L9.99444947,0.00158795104 Z" id="Fill-1" fill="#51BAFF"></path>
                <path d="M13,28.5004853 C13,30.4329404 11.4328523,32 9.5,32 C7.56714775,32 6,30.4330699 6,28.5004853 C6,26.5667683 7.56714775,25 9.5,25 C11.4328523,25 13,26.5669302 13,28.5004853" id="Fill-2" fill="#24B47E"></path>
            </g>
        </g>
    </g>
</svg>