<?xml version="1.0" encoding="UTF-8"?>
<svg width="62px" height="62px" viewBox="0 0 62 62" version="1.1" xmlns="http://www.w3.org/2000/svg" xmlns:xlink="http://www.w3.org/1999/xlink">
    <!-- Generator: Sketch 48.2 (47327) - http://www.bohemiancoding.com/sketch -->
    <title>Group 16</title>
    <desc>Created with Sketch.</desc>
    <defs></defs>
    <g id="Landing-B" stroke="none" stroke-width="1" fill="none" fill-rule="evenodd" transform="translate(-81.000000, -2756.000000)">
        <g id="Group-16" transform="translate(81.000000, 2756.000000)" fill="#51BAFF">
            <circle id="Oval-Copy-2" fill-opacity="0.1" cx="31" cy="31" r="31"></circle>
            <path d="M23.4223623,47 L15,40.0164824 L19.8270243,35.1940343 C21.1166901,33.9013546 22.7498535,33.0182465 24.5263656,32.6540614 C26.3042589,32.2912081 28.1466338,32.4606273 29.8297587,33.1449805 L35.7729144,33.1449805 C37.0046681,33.1449805 38.0035265,34.1574863 38.0035265,35.4061455 C38.0035265,36.6534387 37.0047018,37.6659787 35.7729144,37.6659787 L31.1709357,37.6659787 C30.7629901,37.6659787 30.4326651,38.000818 30.4326651,38.4143614 C30.4326651,38.8278946 30.76298,39.1627442 31.1709357,39.1627442 L36.3860624,39.1627442 C37.1361917,39.1614123 37.8520925,38.8359098 38.3495172,38.267615 L43.9726232,31.7683579 C44.8227427,30.819885 46.266403,30.7385034 47.2152327,31.5855959 C48.1640623,32.4326884 48.2667141,33.8947771 47.4455304,34.869956 L40.4246491,43.1542805 C39.3784233,44.3695743 37.8650259,45.0672778 36.274109,45.0672778 L25.3159418,45.0672778 L23.4223623,47 Z M35.0003185,27.9992219 C35.0003185,29.6184988 35.9764033,31.0787579 37.4737295,31.696775 C38.9696755,32.3148983 40.690937,31.9705745 41.8328054,30.8228143 C42.9761957,29.676449 43.3149124,27.9534494 42.6913834,26.458675 C42.0678543,24.9652105 40.6051076,23.994501 38.9860273,24.0000234 C36.7822094,24.0069371 35,25.7963015 35,27.9991865 L35.0003185,27.9992219 Z M30.9996603,27 C32.2130562,27 33.306699,26.2695419 33.7714797,25.148455 C34.2362604,24.0273681 33.9784862,22.7370166 33.1218199,21.8789599 C32.2638504,21.0209033 30.9736299,20.764373 29.8526568,21.2279342 C28.7316838,21.6927621 28,22.786516 28,24.0000351 C28,25.6562824 29.3435812,27 30.9996603,27 Z M36.9997019,21.9957401 C38.2140414,21.9957401 39.3079155,21.2651233 39.7712413,20.1450933 C40.2359818,19.0250995 39.979533,17.7351746 39.1208513,16.8785232 C38.2635915,16.0204582 36.9727504,15.7641841 35.8519612,16.2285947 C34.7311719,16.6930054 34,17.7861394 34,18.9981671 C34,19.796749 34.3173961,20.5613665 34.8827603,21.1249157 C35.4481244,21.6884649 36.2161143,22.0028084 37.0152634,21.9999811 L36.9997019,21.9957401 Z" id="Page-1"></path>
        </g>
    </g>
</svg>