<?xml version="1.0" encoding="UTF-8"?>
<svg width="62px" height="62px" viewBox="0 0 62 62" version="1.1" xmlns="http://www.w3.org/2000/svg" xmlns:xlink="http://www.w3.org/1999/xlink">
    <!-- Generator: Sketch 48.2 (47327) - http://www.bohemiancoding.com/sketch -->
    <title>Group 18</title>
    <desc>Created with Sketch.</desc>
    <defs></defs>
    <g id="Landing-B" stroke="none" stroke-width="1" fill="none" fill-rule="evenodd" transform="translate(-735.000000, -2411.000000)">
        <g id="Group-18" transform="translate(735.000000, 2411.000000)" fill="#51BAFF">
            <circle id="Oval-Copy" fill-opacity="0.1" cx="31" cy="31" r="31"></circle>
            <path d="M44.1689673,21.5840118 L40.4211586,17.8333189 C39.8916856,17.3034384 39.1713842,17 38.4141287,17 C37.6568733,17 36.9380864,17.3034308 36.4070988,17.8333189 L20.0874864,34.1639745 C19.7473121,34.5044106 19.5195448,34.9218127 19.3686995,35.3762125 L17.0584645,43.294864 C16.9076041,43.7492638 17.0584645,44.2421618 17.3986388,44.6210809 C17.6633829,44.8860287 18.005049,45 18.3452082,45 C18.4590918,45 18.6099523,45 18.7238359,44.961517 L26.6363982,42.6495042 C27.0904486,42.4985276 27.5075449,42.2705851 27.8477041,41.9301641 L44.1673165,25.5979928 C44.6967895,25.0681123 44.9999946,24.3472566 44.9999946,23.5894184 C45.001475,22.833058 44.6982737,22.113718 44.1687931,21.5837996 L44.1689673,21.5840118 Z M21.3175434,37.7407407 L24.2592593,40.6824566 L20.1111111,41.8888889 L21.3175434,37.7407407 Z M42.3327329,23.7144184 L39.7277163,26.3333333 L35.6666667,22.2506172 L38.2716833,19.6317023 C38.3105854,19.5925926 38.3868957,19.5925926 38.424304,19.5925926 C38.4632061,19.5925926 38.5006143,19.5925926 38.5769247,19.6317023 L42.3684634,23.4434696 C42.4073655,23.4825793 42.4073655,23.5592968 42.4073655,23.5969046 C42.4088632,23.6375199 42.3699611,23.6751239 42.3325529,23.7142374 L42.3327329,23.7144184 Z" id="Page-1"></path>
        </g>
    </g>
</svg>