<?xml version="1.0" encoding="UTF-8"?>
<svg width="112px" height="29px" viewBox="0 0 112 29" version="1.1" xmlns="http://www.w3.org/2000/svg" xmlns:xlink="http://www.w3.org/1999/xlink">
    <!-- Generator: Sketch 48.2 (47327) - http://www.bohemiancoding.com/sketch -->
    <title>Group 24</title>
    <desc>Created with Sketch.</desc>
    <defs>
        <linearGradient x1="22.4343418%" y1="104.874095%" x2="101.832141%" y2="100.097539%" id="linearGradient-1">
            <stop stop-color="#4FD2DF" offset="0%"></stop>
            <stop stop-color="#65EB93" offset="100%"></stop>
        </linearGradient>
    </defs>
    <g id="Landing-B" stroke="none" stroke-width="1" fill="none" fill-rule="evenodd" transform="translate(-87.000000, -70.000000)">
        <g id="Group-24" transform="translate(87.000000, 70.000000)">
            <g id="Group-31">
                <path d="M41.558,6.876 L46.794,20.846 C46.112,21 45.408,21.11 44.682,21.11 C44.286,21.11 43.846,21.066 43.472,21 L42.46,18.206 L37.224,18.206 L36.212,21 C35.728,21.066 35.2,21.088 34.716,21.088 C34.078,21.088 33.462,21.022 32.978,20.846 L38.258,6.876 C38.808,6.766 39.402,6.744 39.952,6.744 C40.524,6.744 41.008,6.766 41.558,6.876 Z M38.236,15.478 L41.448,15.478 L40.26,12.222 L39.82,10.858 L39.424,12.222 L38.236,15.478 Z M52.932,10.264 C56.232,10.264 58.718,12.046 58.718,15.742 C58.718,19.262 56.1,21.374 52.998,21.374 C52.294,21.374 51.722,21.308 51.216,21.176 L51.216,25.048 C50.666,25.136 50.116,25.18 49.566,25.18 C49.038,25.18 48.488,25.136 47.938,25.048 L47.938,11.87 C49.06,10.99 50.754,10.264 52.932,10.264 Z M52.734,18.514 C54.34,18.536 55.418,17.546 55.418,15.83 C55.418,14.136 54.318,13.168 52.69,13.168 C52.184,13.168 51.7,13.256 51.216,13.454 L51.216,18.25 C51.7,18.47 52.162,18.514 52.734,18.514 Z M68.97,10.528 C69.52,10.528 70.07,10.572 70.62,10.66 L70.62,20.164 C69.806,20.626 67.936,21.374 65.428,21.374 C61.842,21.374 60.412,19.702 60.412,17.128 L60.412,10.66 C60.962,10.572 61.512,10.528 62.062,10.528 C62.59,10.528 63.162,10.572 63.69,10.66 L63.69,16.402 C63.69,17.832 64.108,18.514 65.692,18.514 C66.33,18.514 66.88,18.404 67.342,18.184 L67.342,10.66 C67.892,10.572 68.442,10.528 68.97,10.528 Z M77.506,10.22 C78.496,10.22 79.31,10.33 79.926,10.528 C79.904,11.606 79.596,12.618 79.002,13.366 C78.606,13.256 78.21,13.212 77.748,13.212 C77.066,13.212 76.494,13.344 76.142,13.52 L76.142,21 C75.614,21.088 75.042,21.132 74.492,21.132 C73.942,21.132 73.414,21.088 72.864,21 L72.864,11.826 C73.59,11.166 75.218,10.22 77.506,10.22 Z M85.206,10.264 C88.242,10.264 90.332,11.584 90.332,14.84 L90.332,20.318 C88.77,20.956 86.966,21.352 85.052,21.352 C82.06,21.352 80.322,20.208 80.322,17.92 C80.322,15.72 82.214,14.598 84.876,14.62 C85.712,14.642 86.438,14.73 87.076,14.928 L87.076,14.51 C87.076,13.608 86.46,12.97 84.92,12.97 C83.688,12.97 82.632,13.454 82.082,13.872 C81.378,13.476 80.828,12.75 80.674,11.782 C81.268,11.254 82.918,10.264 85.206,10.264 Z M83.6,17.788 C83.6,18.558 84.238,19.064 85.492,19.064 C86.02,19.064 86.548,18.976 87.076,18.822 L87.076,16.908 C86.548,16.754 85.954,16.666 85.272,16.666 C84.238,16.666 83.6,17.018 83.6,17.788 Z M99.506,17.92 C100.144,18.294 100.76,19.284 100.87,20.164 C100.122,20.758 99.066,21.33 97.482,21.33 C95.084,21.33 93.28,20.318 93.28,17.766 L93.28,13.41 L91.498,13.41 C91.432,12.992 91.388,12.53 91.388,12.046 C91.388,11.606 91.432,11.166 91.498,10.726 L93.28,10.726 L93.28,7.976 C93.852,7.888 94.402,7.844 94.952,7.844 C95.48,7.844 96.03,7.888 96.536,7.976 L96.536,10.726 L100.188,10.726 C100.276,11.144 100.342,11.584 100.342,12.024 C100.342,12.508 100.276,12.948 100.188,13.41 L96.536,13.41 L96.536,16.952 C96.536,18.14 97.086,18.536 98.054,18.536 C98.67,18.536 99.154,18.228 99.506,17.92 Z M106.392,10.264 C109.428,10.264 111.518,11.584 111.518,14.84 L111.518,20.318 C109.956,20.956 108.152,21.352 106.238,21.352 C103.246,21.352 101.508,20.208 101.508,17.92 C101.508,15.72 103.4,14.598 106.062,14.62 C106.898,14.642 107.624,14.73 108.262,14.928 L108.262,14.51 C108.262,13.608 107.646,12.97 106.106,12.97 C104.874,12.97 103.818,13.454 103.268,13.872 C102.564,13.476 102.014,12.75 101.86,11.782 C102.454,11.254 104.104,10.264 106.392,10.264 Z M104.786,17.788 C104.786,18.558 105.424,19.064 106.678,19.064 C107.206,19.064 107.734,18.976 108.262,18.822 L108.262,16.908 C107.734,16.754 107.14,16.666 106.458,16.666 C105.424,16.666 104.786,17.018 104.786,17.788 Z" id="Apurata" fill="#FFFFFF"></path>
                <path d="M3.52762757,11.8218543 C6.7197369,14.5831743 11.3753806,18.7921913 11.3753806,18.7921913 C11.3753806,18.7921913 22.0872222,6.10638882 32.2194983,0 L33,2.12861167 C29.3171718,4.4767882 18.187713,17.3358322 13.8267256,28.7223229 C13.8267256,28.7223229 2.21292089,17.1885769 0,14.5613308 L3.5291271,11.8218543 L3.52762757,11.8218543 Z" id="Path" fill="url(#linearGradient-1)"></path>
            </g>
        </g>
    </g>
</svg>