<?xml version="1.0" encoding="UTF-8"?>
<svg width="226px" height="10px" viewBox="0 0 226 10" version="1.1" xmlns="http://www.w3.org/2000/svg" xmlns:xlink="http://www.w3.org/1999/xlink">
    <!-- Generator: Sketch 48.2 (47327) - http://www.bohemiancoding.com/sketch -->
    <title>Fill 1</title>
    <desc>Created with Sketch.</desc>
    <defs></defs>
    <g id="Landing-B" stroke="none" stroke-width="1" fill="none" fill-rule="evenodd" transform="translate(-586.000000, -300.000000)">
        <path d="M586.20781,306.535744 C585.942569,306.535744 585.890468,309.599681 586.294419,309.77972 C586.434483,309.841916 586.983235,309.987256 587.045485,309.699848 C587.179459,309.090334 587.156454,308.511591 587.634835,309.002606 C588.03811,309.212106 588.483337,309.409822 588.893378,309.281503 C589.151177,309.201631 589.329132,308.284414 589.531446,308.404877 C589.869764,308.605866 589.932015,309.82293 590.333937,309.992494 C590.563316,310.088733 590.373858,309.231747 590.386714,309.013736 C590.586998,309.014391 590.70947,310.106409 590.909077,309.769245 C590.965238,309.67497 590.984184,307.5492 591.328591,308.243169 C591.484894,308.558074 591.337388,309.082478 591.625635,309.360066 C591.742016,309.472672 591.94839,309.480528 592.067478,309.389527 C592.378054,309.15253 591.949067,308.193413 592.530974,308.195377 C592.516764,308.666752 592.583075,309.092299 592.753587,309.436664 C592.980937,309.671042 593.355116,310.01017 593.337524,309.163659 C593.360529,310.262225 593.667722,310.025228 593.932964,309.441902 C593.949879,310.234728 595.238194,309.447794 595.391791,309.448448 C594.792291,309.44583 594.837626,308.373452 595.443892,308.715199 C595.845814,308.941066 596.266005,309.028139 596.676046,309.039269 C596.656424,308.119433 595.606284,307.964272 595.273379,307.790125 C595.591398,307.79078 595.912801,307.756736 596.230819,307.805183 C596.442607,307.837917 596.777541,307.930228 596.887156,308.404877 C596.990682,308.853992 596.769422,309.123069 597.040753,309.425534 C597.592211,310.040286 597.712652,308.89982 598.206597,308.841553 C598.64235,308.791142 598.942777,309.262517 599.24794,309.882506 C599.237113,309.340425 599.550396,308.637945 599.75474,308.402913 C600.072082,308.036288 599.938785,308.949577 600.038927,308.950231 C600.256804,308.950886 600.19726,308.285724 600.191847,308.014028 C600.19726,308.301436 600.070052,309.19443 600.19523,309.366613 C600.389424,309.633725 600.801496,309.475945 601.000427,309.417678 C601.224393,309.352864 601.630375,309.240913 601.758936,308.783286 C601.841485,308.486713 601.852312,308.309292 602.066129,308.385891 C602.1886,308.4291 602.307688,308.580988 602.353699,308.838934 C602.415273,309.180027 602.455871,309.064802 602.623,309.065456 C602.856439,309.066766 603.054017,308.620924 603.2949,308.496533 C603.529692,308.376071 603.784107,308.338753 604.027696,308.417316 C604.182646,308.467072 604.411349,308.969217 604.510815,308.969872 C604.569682,308.969872 604.474276,308.656277 604.542616,308.656931 L604.744254,308.657586 L605.699664,308.661514 C606.020389,308.661514 606.695672,308.930591 606.675373,307.9682 C606.690259,308.685738 607.358776,308.740077 607.618604,308.734839 C607.986017,308.726983 608.017819,308.177046 608.36764,308.260846 C608.51447,308.296199 608.422447,308.863158 608.570631,309.03665 C608.710018,309.199667 608.892033,309.174789 609.038863,309.136163 C609.226291,309.086406 609.435371,308.988858 609.590998,308.762336 C609.68911,308.620269 609.628889,308.234003 609.623476,307.995042 C609.645805,309.039269 610.084942,308.228111 610.302142,308.266083 C610.568737,308.312566 610.289963,309.970234 610.668202,309.70705 C611.129668,309.385598 610.899612,308.0939 611.045089,307.409752 C611.166206,306.842138 611.613463,308.354466 611.59587,308.43892 C611.66827,308.097174 611.589104,307.888983 611.834723,307.854939 C611.89968,307.845774 612.095904,307.918444 612.150035,307.797327 C612.215669,307.649368 612.134473,307.362614 612.19537,307.186504 C612.26777,306.974385 612.444372,307.009738 612.550604,307.009738 C612.543837,307.541344 612.592555,307.866069 612.865916,307.689303 C613.237389,307.449033 613.298963,307.219238 613.363244,308.097828 C613.384896,308.397675 613.886283,308.38851 613.936354,308.153477 C614.004018,307.833989 613.840272,307.689303 614.062209,307.595028 C614.311887,307.488969 614.594721,307.526286 614.847783,307.633 C615.116408,307.746916 615.163095,308.167225 615.397212,308.405531 C615.608322,308.621578 615.94664,308.666097 616.115122,308.287688 C616.341795,307.778996 616.921672,308.689011 616.886487,308.766264 C617.165261,308.140383 616.538696,307.400586 616.531253,307.075861 C616.5299,306.995335 616.854686,306.928557 616.874985,307.202871 C616.91017,307.683411 617.251194,307.472602 617.418323,307.293872 C617.777617,306.911535 617.63417,307.705016 617.852047,308.222874 C617.99617,308.568549 618.028649,307.957071 618.071277,307.873925 C618.061804,307.431357 618.330429,307.459508 618.471846,307.454925 C618.856175,307.443141 618.925192,307.725966 619.233061,307.033307 C619.260803,307.003191 619.498302,306.67061 619.546344,306.770122 C619.658665,307.001227 619.218175,308.027777 619.611301,308.242514 C619.992923,308.45136 620.44018,308.307983 620.827216,308.309292 C620.783234,308.309292 620.485514,308.330897 620.499047,307.963617 C620.505813,307.773758 621.119522,307.976711 621.110049,307.517121 C621.114786,307.746261 620.613399,307.124308 620.722337,307.045746 C620.992315,306.84934 621.371908,305.965512 621.394237,307.041818 C621.334016,307.329225 621.218311,307.741024 621.439571,307.834644 C621.764356,307.971474 622.233265,308.02123 622.546548,307.849047 C622.794197,307.713527 622.543841,306.98486 622.564817,306.622818 C622.739389,306.622818 623.361218,307.075861 623.460006,307.428083 C623.552706,307.7587 623.033726,307.896185 622.970122,307.89553 C623.204915,307.896839 623.695476,307.691267 623.888994,308.106994 C624.039207,308.429755 623.995225,309.188538 624.003345,309.596408 C624.152205,308.893274 624.250994,308.204542 624.489846,307.617288 C624.610288,307.320714 624.85523,307.521049 625.025742,307.354758 C625.111675,307.271613 625.234146,306.582882 625.373533,307.0045 C625.542015,307.517775 625.207081,308.152822 625.326845,308.719781 C625.426987,309.19312 625.728767,308.744005 625.829586,308.562002 C625.960853,308.32566 625.956117,308.075569 626.139485,307.994388 C626.337739,307.90666 626.54885,307.917135 626.751841,307.914516 C627.234959,307.907969 627.927157,308.169189 628.366971,307.674246 C628.472526,307.555747 628.486735,307.08961 628.629506,307.263102 C628.815581,307.488969 628.859562,307.962963 629.05511,308.188175 C629.456355,308.650385 630.07886,308.75317 630.471309,308.301436 C630.549122,308.211744 630.697305,307.617288 630.74264,307.665735 C630.907739,307.840536 630.777148,308.677227 631.03427,308.677881 C631.03427,308.677881 631.091107,307.968855 631.292068,307.940703 C631.432809,307.921063 631.599938,307.966891 631.62159,307.576043 C631.666925,306.762266 631.738648,306.802202 631.989003,306.232624 C632.069523,306.405461 632.344237,307.770485 632.244772,307.685375 C632.164929,307.617288 631.979531,307.32988 631.857736,307.690613 C631.77654,307.929574 631.859766,308.028432 631.955172,308.097174 C632.13854,308.228111 632.642634,307.537416 632.80029,308.188175 C632.920731,308.683119 633.868698,307.943322 634.187394,307.947905 C634.172508,307.236914 633.97696,307.282743 633.963427,306.667336 C634.185364,306.667991 634.396474,307.43463 634.494587,307.362614 C634.682015,307.225785 634.801103,306.552766 634.937107,306.244408 C635.029129,306.771432 636.18347,309.388217 636.153022,307.957725 C636.019048,307.861486 635.985216,308.083425 635.932438,308.129908 C635.82756,308.222874 635.95815,307.283397 635.997395,307.174064 C636.081975,306.933794 636.248427,306.846721 636.385108,306.908916 C636.736958,307.06735 636.379018,308.144311 636.784323,308.342681 C636.966338,308.431719 637.241052,308.463799 637.413594,308.337444 C637.632825,308.1777 637.461636,307.587827 637.768828,307.545272 C637.978586,307.515157 638.107146,307.451652 638.118649,307.967546 C638.093614,308.086044 637.990088,308.427136 638.015124,308.581642 C638.052339,308.81733 638.893397,306.851958 639.05376,307.490278 C639.178938,307.989805 639.101801,308.508317 639.463125,308.57575 C639.546351,308.591463 639.918501,308.470345 639.987518,308.370178 C639.930004,308.453324 639.201267,307.174064 639.530112,307.27685 C639.80212,307.362614 640.046385,307.548546 640.322453,307.55051 L640.748057,307.552474 C640.840756,307.629727 640.886091,307.572114 640.884737,307.378982 C640.994352,307.282743 640.81572,308.349228 640.831283,308.461835 C640.888797,308.887381 641.139829,308.403567 641.187194,308.263464 C641.253504,308.070986 641.392214,307.504027 641.55799,307.749535 C641.709557,307.972783 641.608738,308.406186 641.678431,308.682464 C641.574906,308.271321 642.129071,307.585208 642.267781,307.492243 C642.411905,307.395349 642.59392,307.314822 642.74481,307.449688 C642.880137,307.570805 642.812473,307.833989 642.957273,307.938085 C643.081098,308.027122 643.607521,308.182938 643.614287,307.746916 C643.620377,307.354103 643.652855,307.17341 643.851786,307.145258 C643.851786,307.145258 644.14274,307.0883 644.14477,307.193705 C644.148153,307.359996 643.638646,308.347919 643.998616,308.531886 C644.300396,308.687047 644.395125,307.78096 644.702318,308.15806 C645.054168,308.588189 645.261219,308.11616 645.529167,307.756736 C645.734864,307.480458 645.690206,307.645439 645.812001,307.758046 C645.903347,307.8425 646.071152,307.578007 646.167235,307.578661 C646.253844,307.163589 646.610431,306.529197 646.733579,307.299764 C646.762674,307.481113 646.962959,309.075277 647.138884,308.226802 C647.22414,307.818932 647.196398,307.526941 647.460286,307.591755 C647.603733,307.627108 647.51983,308.07426 647.591554,308.263464 C647.67275,308.480166 647.847999,308.445467 647.95423,308.446122 L647.936638,307.587172 C647.839202,307.483732 647.68087,307.312858 647.636212,307.068005 C647.557045,306.630674 648.037457,306.729532 648.10715,306.729532 C648.435995,306.731496 648.280369,307.219893 648.576059,307.517121 C648.629513,307.57015 649.067973,308.015992 649.107218,307.879817 C649.206007,307.52956 649.067973,307.212691 649.354867,307.1721 C649.496284,307.151805 649.64988,307.291253 649.707394,307.039199 C649.840692,306.455218 650.761593,306.715129 650.997063,306.758993 C651.242682,306.804821 651.19667,306.974385 651.288693,307.355413 C651.375302,307.7168 651.731213,307.606813 651.867217,307.607468 C652.051938,307.805838 652.359808,307.933502 652.435591,307.391421 C652.482279,307.058839 652.614223,307.181266 652.782029,307.181921 C652.890967,307.182575 652.907206,306.870944 653.05336,306.806785 C653.296949,306.700071 653.453928,306.903024 653.685338,306.923974 C653.947872,306.948197 654.52166,305.196254 654.297693,304.878076 C654.316639,304.904918 654.043955,305.017524 653.999297,305.002466 C653.849084,304.950091 653.686014,304.844687 653.571663,304.603762 C653.230638,304.278382 652.865255,304.085904 652.499871,304.185417 C652.248839,304.253504 652.519494,305.262377 652.182529,305.42474 C651.957209,305.533418 651.789403,305.333084 651.615508,305.026035 C651.606712,304.647626 651.582353,304.595905 651.409134,304.595251 C651.113444,304.594596 651.273807,304.631259 651.201407,305.185779 C651.169605,305.42474 650.957818,305.600851 650.861735,305.399207 C650.649272,304.954674 650.996386,304.186071 650.5471,304.163812 C650.38809,304.15661 650.033533,304.578229 650.043006,305.020143 C649.964516,305.096087 649.825129,305.007704 649.73446,305.050259 C649.624845,305.103288 648.812205,305.830646 648.755368,305.712802 C648.596358,305.378912 649.14917,304.572991 649.143757,304.318318 C649.150523,304.635841 648.120006,304.950746 648.001595,305.19298 C647.826346,305.551749 647.683576,305.418193 647.488028,305.009668 C647.184219,304.375276 647.22414,305.009013 647.036712,305.008359 C646.823572,305.007704 646.771471,305.058769 646.615168,304.761541 C646.56036,304.655482 646.499463,304.61882 646.431799,304.651554 C646.286999,304.731426 646.190917,305.170066 646.318125,305.43456 C646.385112,305.702982 646.420297,306.236552 646.20039,306.037527 C645.998752,305.854215 645.952064,305.345523 645.746367,305.170066 C645.539993,304.993955 645.31332,305.235535 645.138748,305.429977 C644.985828,305.429323 644.834262,305.416883 644.692845,305.247319 C644.650893,305.07841 644.597439,304.995919 644.532482,304.998538 C644.280773,304.997884 644.35588,305.383494 644.103495,305.418848 C643.937719,305.442416 643.822691,305.235535 643.655562,305.180541 C643.267173,305.052877 642.789468,305.174649 642.478892,305.687924 C642.265751,306.040146 642.205531,306.112162 642.190645,305.418193 C642.37063,305.008359 642.112832,304.997229 641.968032,304.991337 C641.760981,304.982826 641.501829,304.925868 641.311018,305.113763 C641.166218,305.25583 641.04713,305.647333 640.815044,305.412955 C640.800158,304.717677 640.255466,304.913429 640.078864,305.029963 C639.896849,305.149771 639.664763,306.181558 639.580183,305.932122 C639.372456,305.319335 639.309529,305.075791 638.946852,305.011632 C638.420429,304.918666 637.868971,304.923249 637.350667,305.082993 C637.161886,305.141915 636.973781,305.221787 636.791089,305.331119 C636.678768,305.397898 636.601631,305.717385 636.498106,305.71673 C636.350599,305.716076 636.207829,305.113763 636.086711,304.940271 C635.929055,304.715059 635.74298,304.574301 635.559612,304.520616 C635.311963,304.447946 635.097469,304.547459 635.110325,305.144534 C635.100176,304.68167 634.575783,305.461402 634.456018,305.54913 C634.386325,305.599541 634.075072,304.897716 633.924183,304.802132 C633.712395,304.66923 633.447831,304.601143 633.24078,304.756304 C633.055382,304.895752 633.152141,305.471877 633.159584,305.811005 C633.068238,305.810351 632.859834,305.881057 632.766458,305.809041 C632.773901,305.676794 632.763075,305.553058 632.73398,305.435869 C632.674436,305.312134 632.491067,305.38153 632.415284,305.38153 C632.343561,305.38153 632.296873,305.024071 632.178462,304.947473 C632.051254,304.864327 631.911867,304.878076 631.783983,304.912774 C631.381384,305.021452 631.233201,305.441107 630.909769,305.862726 C630.503111,306.391713 630.605959,305.86469 630.59175,305.202801 C630.59987,305.59103 630.344101,305.247319 630.239899,305.553713 C630.2196,305.613944 630.220954,306.119363 630.193888,306.119363 C630.018639,306.118708 630.038938,305.480388 629.885342,305.479733 C629.675585,305.479079 629.549054,306.031635 629.359596,306.169774 C629.045637,306.398915 629.225622,305.925576 629.34065,305.723932 C629.514546,305.420812 629.453648,304.654827 629.184347,304.816535 C628.921136,304.974315 628.631536,305.450273 628.645068,306.078772 C628.611236,304.501631 626.876342,306.063715 626.851983,304.939616 C626.498779,304.208331 626.209179,305.166138 625.844472,305.28791 C625.567051,305.380876 625.284894,305.35076 625.004766,305.363199 C624.62382,305.379566 624.278059,305.78089 623.929592,305.77958 C623.649464,305.778271 623.566915,305.338976 623.211681,305.355343 C623.07906,305.361235 622.860507,305.350105 622.769161,305.596923 C622.723826,305.721313 622.771868,306.068952 622.656163,306.05324 C622.382125,306.017232 622.337467,305.161555 622.328671,304.754995 C622.346263,305.599541 620.032845,305.219168 619.717533,305.175304 C619.397484,305.130785 619.013831,304.763505 618.714758,304.808024 C618.425834,304.850579 618.130144,305.051568 617.875053,305.321299 C617.79115,305.410337 617.466364,306.393022 617.622667,306.393677 C617.402761,306.393022 617.528615,305.117037 617.182854,305.520979 C617.138873,305.572699 616.812057,306.189415 616.730184,306.02116 C616.686203,305.930813 616.965654,304.927177 616.758603,305.024726 C616.507571,305.143879 616.055578,305.503302 616.070464,306.17763 C615.912132,306.266013 615.709817,305.52949 615.65907,305.332429 C615.611028,305.298385 615.106935,304.75434 615.075809,304.88004 C614.99529,305.206074 615.048067,305.860107 614.776736,305.924266 C614.571039,305.972713 614.419472,305.682687 614.195506,305.803804 C613.983042,305.918374 613.9553,306.171738 613.719154,306.171083 C613.43632,306.170429 613.347681,305.649298 613.049285,305.555677 C612.848324,305.492827 612.520832,305.603469 612.533011,306.16781 C612.47888,306.057822 612.018091,305.304932 612.045833,305.509849 C612.080342,305.760594 612.356409,306.508247 612.015385,306.44016 C611.846902,306.406771 611.752173,306.106924 611.600607,305.99039 C611.290031,305.752083 610.705417,305.689233 610.56806,306.334101 C610.645873,305.968785 610.093738,305.346177 609.960441,305.321954 C609.971944,305.876474 609.805491,305.741608 609.583555,305.741608 C609.33117,305.740954 609.445521,305.687924 609.371091,306.036218 C609.264859,306.534435 608.662653,305.784818 608.479961,305.74881 C608.345987,305.722623 608.328395,306.044729 608.158559,306.10496 C607.91903,306.190724 607.667322,306.151443 607.423733,306.15799 C606.952794,306.171083 606.705822,306.290891 606.511627,307.200252 C606.575231,306.903679 606.733564,306.453254 606.684846,306.101687 C606.627332,305.68596 606.376977,306.159954 606.328259,306.297438 C606.043395,307.10925 605.845817,306.836246 605.635384,305.97926 C605.485847,305.373019 605.096105,307.618597 605.073776,306.568479 C605.05889,305.873855 604.273992,305.929504 604.293614,306.845411 C604.284818,306.450635 604.163024,306.260121 604.006721,306.044074 C603.926878,305.934741 603.826735,306.148169 603.696821,306.148169 C603.476238,306.147515 603.371359,305.88433 603.156189,305.840466 C602.937636,305.795293 602.812458,306.148824 602.627736,306.144896 C602.405123,306.140313 602.181833,306.109543 601.96125,306.020505 C601.634435,305.888913 601.391522,305.633585 601.052528,305.778271 C600.887429,305.848322 600.727742,306.453908 600.649929,306.453908 C600.545727,306.453908 600.460471,305.743572 600.336647,305.601505 C600.166811,305.406408 600.063286,305.955691 600.022011,306.186141 C599.981413,306.410044 599.982766,307.516466 599.745944,307.066041 C599.549043,306.692215 599.46311,306.175666 599.189072,305.970094 C598.828425,305.699708 598.699864,307.290599 598.375079,306.470276 C598.177501,305.970094 597.473123,306.259466 597.234947,306.341302 C596.990005,306.425102 596.779571,306.631329 596.523803,306.497118 C596.461552,306.465038 595.92092,305.763213 595.939866,305.900043 C595.976404,306.159954 596.151653,306.383857 595.977758,306.619544 C595.883705,306.747863 595.755144,306.76423 595.644176,306.751791 C595.425623,306.726913 595.05009,306.52265 595.038587,305.957001 C595.075802,307.71811 594.667114,305.702327 594.349095,305.871891 C594.066937,306.021815 594.058141,306.84934 593.717793,306.950816 C593.621711,306.979622 593.349703,306.573061 593.235352,306.499082 C592.737348,306.179594 592.948458,307.044436 592.436245,306.795 C592.10334,306.632638 591.879373,306.508247 591.532259,306.57699 C591.430764,306.597285 591.134397,306.954744 591.112745,306.950816 C590.599854,306.860469 589.996972,305.44438 589.484082,306.019196 C589.235756,306.298093 589.481375,306.538363 589.155237,306.538363 C589.055094,306.336719 588.92518,306.173702 588.787823,306.132457 C588.716776,306.112162 588.740459,306.413972 588.638287,306.485988 C588.014428,306.926593 586.733556,305.386113 586.20781,306.535744 C586.010909,306.535744 586.395238,306.12591 586.20781,306.535744 Z M624.333543,306.629365 C624.625174,306.630019 624.600815,307.478494 624.351813,307.477185 C623.89373,307.475875 623.855162,306.6274 624.333543,306.629365 Z M626.897317,307.064077 C627.188948,307.064732 627.165265,307.914516 626.915587,307.913207 C626.778906,307.630382 626.571855,307.155733 626.897317,307.064077 Z M632.990425,307.08961 L633.01749,308.368869 C632.849684,308.007482 632.627748,307.087646 632.990425,307.08961 Z M644.585936,307.141985 C644.575787,306.673229 644.786897,306.332791 644.969589,306.715129 C645.219944,307.238879 645.305877,308.541706 644.80043,308.000935 C644.696905,307.777686 644.592703,307.464746 644.585936,307.141985 Z M651.830002,305.886949 C652.121632,305.888258 652.097949,306.748518 651.848271,306.747208 C651.712267,306.46111 651.50454,305.980569 651.830002,305.886949 Z M614.54262,308.281141 C615.003409,309.227819 615.039271,307.861486 614.730048,307.860177 L614.54262,308.281141 Z M638.520571,308.396366 C638.784459,308.946958 638.922493,308.822567 638.904224,307.970819 L638.707999,307.970164 L638.520571,308.396366 Z M654.587293,307.333808 C654.869451,307.435285 655.170554,307.352139 655.445268,307.244116 C655.761934,307.119725 655.855309,307.032652 656.000786,306.518068 C656.169268,305.925576 656.564424,306.708582 656.540742,305.621801 C656.563071,306.642458 657.352705,306.700725 657.680873,306.861124 C657.802668,306.919391 658.04761,307.009083 658.147076,307.208763 C658.156548,307.645439 658.358863,308.070986 658.55847,308.072296 L658.540201,307.210727 C658.845364,307.212036 658.897465,307.891602 659.198568,307.692577 C659.44148,307.531524 659.731757,307.198943 659.856935,306.696797 C659.912419,306.474858 659.850845,306.339338 659.980083,306.365526 C660.122176,306.394986 660.271713,306.466347 660.398244,306.629365 C660.649952,306.952125 660.954438,307.426119 661.196674,307.026105 C661.43688,306.629365 661.821886,306.379274 662.131108,306.561277 C662.269142,306.643113 662.424092,307.620561 662.570922,307.364578 C662.900444,306.790418 662.286735,305.935396 662.836163,305.938015 C663.317928,305.940633 662.698806,307.663116 663.266504,307.665735 C663.576403,307.667699 663.327401,306.991407 663.516859,306.824461 C663.824728,306.553421 664.281458,306.795655 664.602183,306.893204 C665.320771,307.111869 666.224756,307.833335 666.942667,307.5492 C667.170017,307.458853 667.192346,307.06735 667.349325,306.762921 C667.708619,306.064369 667.497509,306.977004 667.604417,307.202871 C667.757337,307.525632 668.239778,307.111214 668.357513,306.82839 C668.554414,305.873855 668.57945,306.288927 668.758082,307.00581 C668.782441,307.105322 669.034149,305.380221 668.94957,305.365163 C669.0964,305.391351 669.129555,306.276488 669.17286,306.46111 C669.283151,306.931175 669.591021,306.552111 669.724318,306.403497 C669.881297,306.317079 670.70747,305.682687 670.55658,306.641149 C670.374565,307.793399 671.16014,306.468311 671.333358,306.392368 C671.777232,306.195961 671.733927,308.579678 672.110813,307.712217 C672.090514,306.787144 671.449063,305.480388 671.172319,304.917357 C671.145254,304.861709 670.652663,303.862656 670.660782,304.246302 C670.519365,304.572991 670.441552,304.627985 670.241268,304.425032 C669.988206,304.167085 669.645828,303.672142 669.37991,304.061026 C669.15256,304.394916 669.147147,304.775945 668.892056,304.239101 C668.533439,304.237137 667.935969,305.488899 667.90552,304.052515 C667.928526,305.158282 667.162574,304.37724 666.906806,304.525854 C666.617882,304.693454 666.868237,305.104598 666.673366,305.450273 C666.50353,305.750774 666.351964,304.921285 666.346551,304.65941 C666.318132,303.344798 665.895235,304.422413 665.593455,304.512106 C665.457451,304.552696 664.418815,304.222734 664.490538,304.057752 C664.408665,304.246957 664.678643,304.052515 664.539933,304.469551 C664.467533,304.686252 664.290254,304.650245 664.184022,304.650245 C664.024336,304.648935 663.742855,304.703929 663.619031,304.397535 C663.499267,304.098998 663.512799,303.74874 663.264474,304.016507 C663.085165,304.210295 663.078399,304.783146 662.945778,304.93176 C662.711662,305.193635 662.331393,304.495084 662.123665,304.303915 C661.873987,304.074774 661.604686,303.970024 661.339444,303.994248 C661.074203,304.019126 660.814375,304.174287 660.585672,304.450565 C660.474703,304.584121 660.2663,305.279399 660.144505,305.278744 C660.174954,305.278744 660.271713,304.485918 660.232468,304.328793 C660.161421,304.043349 659.687776,304.174287 659.582221,304.252849 C659.403589,304.384441 659.51185,304.815226 659.284501,304.89117 C659.103162,304.951401 658.906938,304.882659 658.731012,304.758268 C658.226919,304.402773 658.207296,303.61191 657.68967,304.190654 C657.480589,304.67054 657.256623,304.619474 656.970406,304.618165 C656.846581,304.618165 656.812073,305.479079 656.537358,305.477769 C656.513,305.184469 656.674039,304.170359 656.385115,304.440745 C656.197687,304.616201 656.085366,305.159591 655.948008,305.475151 C656.296476,304.675777 655.455417,305.073173 655.299115,304.988063 C655.021694,304.836176 655.266636,304.180834 654.937791,304.17887 C654.619095,304.17756 654.648867,306.330172 655.063645,306.332136 L654.787578,306.330827 C654.508804,306.329518 654.190108,307.191086 654.587293,307.333808 Z M658.672145,304.194582 C658.936033,304.749102 659.074067,304.624057 659.055798,303.765762 L658.859573,303.764453 L658.672145,304.194582 Z M672.225841,305.866654 C672.46943,306.028362 672.85376,305.707565 672.868646,306.41921 C673.039158,306.554075 673.452582,306.166501 673.467468,306.854577 C673.481678,306.570443 673.22185,305.427358 673.473558,305.388077 C673.684669,305.354688 674.067645,306.514794 674.286875,306.183522 C674.364011,306.066988 674.253043,305.668938 674.225977,305.56026 C674.215828,305.098051 674.466183,305.128821 674.60963,305.129476 C674.807208,305.130785 675.204393,305.334393 675.066359,305.958965 C674.952685,306.474204 674.330856,306.489916 674.491219,307.177338 C674.68406,308.005517 674.968247,307.765247 675.05824,307.134129 C675.181387,306.275833 676.212581,306.548183 676.232203,307.477839 C676.227467,307.250008 676.144241,306.479441 676.2931,306.442779 C676.470379,306.400224 676.797871,306.339338 676.786368,305.823444 C676.810727,306.948852 678.30068,306.894513 678.628848,306.864397 C679.284508,306.805475 679.681694,306.152752 680.112711,305.156318 C680.05452,305.292493 679.672221,306.300711 679.838673,306.55604 C679.84341,306.561932 680.082939,306.455218 680.082939,306.455218 C680.19729,306.455872 680.105944,306.417901 680.178345,306.77405 C680.288636,307.318096 680.530872,307.547891 680.537638,306.776015 C680.542375,306.279107 680.487567,306.038182 680.752132,306.027707 C680.888136,306.022469 681.054588,305.984497 681.189239,306.082046 C681.296824,306.160608 681.279231,306.461765 681.350278,306.461765 C681.579658,306.463074 681.810391,306.472894 682.03977,306.463729 C682.442369,306.448016 682.262383,304.950746 682.147355,304.950091 C682.34967,304.951401 682.842261,306.309877 683.047958,306.582882 C683.263128,306.87029 683.445143,306.895822 683.208997,306.327554 C683.07367,306.001519 682.834818,305.108526 683.233356,305.492827 C683.446497,305.698399 683.635955,305.972713 683.804437,306.32559 C683.824736,306.36749 683.953974,306.692215 684.002691,306.692215 C683.927585,306.69156 683.827443,305.629657 683.873454,305.432596 C683.931645,305.18316 684.415439,306.478786 684.462804,306.586155 C685.128614,308.091281 684.292968,305.397243 684.317327,305.33963 C684.416116,305.112454 685.05892,306.685668 685.041328,305.86469 C685.05892,306.682394 686.461587,306.377965 686.711265,306.34523 C687.036051,306.302021 687.257311,306.004138 687.544204,305.877783 C687.751932,305.786127 687.922444,306.592047 688.07807,306.306604 C688.166033,306.146205 688.369024,305.414919 688.494878,305.415574 C688.494878,305.415574 688.45834,305.55044 688.421801,305.739644 C688.38594,305.929504 688.343988,306.174357 688.316246,306.393677 C688.260085,306.832318 688.259409,307.169482 688.468489,306.76423 C688.647798,306.416591 688.966493,306.53509 688.9692,305.848977 C688.971906,305.263687 689.367738,306.017232 689.355559,305.453546 C689.369768,306.118054 689.438785,306.595975 689.770337,306.777979 C689.98686,306.897786 690.026782,305.191671 690.258191,304.88004 C690.860397,304.068227 690.95445,306.675847 690.969336,307.378327 C691.198039,306.56455 691.410503,305.903971 691.708899,305.214585 C691.836783,305.732443 691.934895,306.105615 692.129767,306.517413 C692.116911,305.936705 692.475528,306.150788 692.635214,306.03229 C692.723853,305.966821 693.116979,305.185779 693.064878,305.018179 C693.252982,305.621146 692.987741,306.768158 693.557469,306.232624 C693.964127,305.850941 694.089981,306.12591 694.104191,306.961291 C694.338983,306.9626 694.233428,306.538363 694.320037,306.277797 C694.446568,305.896115 694.778797,306.211674 694.949309,305.970094 C695.122528,305.725241 694.978404,305.281363 695.078546,304.980862 C695.182072,304.668576 695.438517,305.019488 695.429721,304.624057 C695.44393,305.268924 695.392506,305.233571 695.670603,305.23488 L696.229504,305.237499 C696.236271,305.555677 696.261306,306.10496 696.051549,306.104305 C695.980502,306.290236 695.855325,306.112816 695.864121,306.536399 C696.40137,306.51414 696.449411,305.603469 696.857423,305.143879 C697.268817,304.681015 696.899374,305.972058 696.902757,305.993008 C696.90614,306.015922 696.987337,305.934741 697.066503,305.849632 C697.145669,305.761249 697.21807,305.679413 697.221453,305.676794 C697.386552,305.295112 697.43324,305.295766 697.613902,305.678104 C697.86561,306.208401 698.46511,306.339338 698.194455,305.247319 C698.328429,305.344868 698.361584,305.119655 698.415039,305.072518 C698.482026,305.012941 698.404889,306.012649 698.417069,306.17763 C698.444134,306.53378 698.580138,306.362907 698.67622,306.259466 C699.140392,305.75863 699.020628,304.383787 699.551787,304.38706 C699.559907,304.853198 699.547727,305.373674 699.664785,305.797257 C699.862363,306.511521 700.177676,306.055858 700.163466,305.40248 C700.174969,305.932122 700.285937,306.559968 700.580951,306.561277 C700.574184,306.260776 700.379313,304.508832 700.738607,305.296421 C700.921975,305.700363 700.943627,306.454563 701.266383,306.456527 C701.469374,306.457182 701.529594,306.027707 701.750854,306.133766 C701.765064,306.781907 702.667696,306.614961 702.837532,306.53509 C703.122395,306.400879 702.704234,305.636858 702.792197,305.433905 C703.018194,304.91212 703.288171,306.539018 703.325386,306.759647 C703.392373,307.157697 703.826774,307.056875 703.956688,307.042472 C704.320041,307.001227 704.683395,306.855232 705.025096,306.612343 C705.126591,306.540327 705.7403,305.75863 705.799168,305.883021 C705.895927,306.088593 705.276128,307.640202 705.529866,307.473911 C705.736917,307.338391 706.669998,306.41921 706.660525,305.975987 C706.673381,306.57699 706.861486,306.808094 707.121991,306.866361 C707.333101,306.913499 707.553685,306.854577 707.749233,306.697452 C707.908242,306.569133 707.94478,306.205127 708.108526,306.05324 C708.574052,305.621801 708.908987,306.563241 709.314968,306.895168 C709.436086,306.994025 709.429997,306.818569 709.425937,306.60645 C709.567354,306.567169 709.725686,306.60776 709.869133,306.609069 C710.130991,306.610379 710.350222,306.197271 710.649295,306.183522 C710.911153,306.172393 711.070839,306.319043 711.321871,306.448016 C711.439606,306.508247 711.671692,306.607105 711.754918,306.343921 C711.896335,305.896769 712.67582,306.208401 712.946474,306.174357 C713.064209,306.159954 713.815275,305.422776 713.847753,305.490863 C713.895794,305.592994 713.753024,306.132457 713.739491,306.194652 L714.123821,305.763213 C714.162389,305.673521 714.408684,304.842068 714.476348,304.858435 C714.516946,304.86891 714.49597,305.517051 714.579873,305.636858 C714.719937,305.837847 714.955406,305.767141 715.106296,305.768451 C715.321466,305.526216 715.682113,305.128166 715.699706,305.953727 C715.694969,305.70691 715.911493,305.305587 715.876308,305.16221 C716.023138,305.755357 716.150346,305.773033 716.481897,305.774997 C716.633464,305.775652 716.87164,305.848977 717.003584,305.649298 C717.089516,305.519015 717.006967,305.344213 717.120642,305.344868 C717.45896,305.346832 717.586844,305.761249 717.942754,305.780235 C718.099057,305.788746 718.836591,305.60216 718.850123,306.22084 C719.229039,306.222149 718.862303,305.39266 719.116718,305.151735 C719.246632,305.027999 719.390079,305.629002 719.430677,305.790055 C719.528789,305.896115 719.629608,306.017232 719.735163,306.080737 C719.986872,306.231315 720.985587,305.013596 721.002502,305.797912 C720.985587,305.59103 721.032951,304.311771 721.183841,304.328138 C721.263684,304.337304 721.35097,304.827665 721.377359,304.93307 C721.424047,305.026035 721.549901,305.105252 721.603355,305.15108 C721.815142,305.335702 721.913931,305.380876 722.118952,305.235535 C722.186615,305.186434 722.288111,305.143879 722.337505,305.316062 C722.437647,305.669593 722.199472,306.358324 722.270518,306.508247 C722.353068,306.682394 722.7489,305.941288 722.874078,305.919683 C723.238785,305.857488 723.640706,306.300711 723.99594,306.482715 C724.381623,306.68174 723.991204,304.417831 724.551458,305.328501 C724.839705,305.797912 724.952704,306.320352 725.369511,306.108888 C725.511605,306.036218 725.833007,304.667921 725.922323,305.692507 C726.026525,306.879455 726.450099,305.908554 726.646324,305.515087 C727.008324,304.789038 727.16801,305.865999 727.532717,305.993663 C727.91028,306.12591 727.603087,304.794276 727.679547,304.424377 C727.752623,304.066918 728.193113,305.69578 728.310172,305.205419 C728.343327,305.064662 728.179581,304.804096 728.27228,304.589359 C728.318968,304.48199 728.565263,304.483299 728.616688,304.591323 C728.839978,305.062698 728.511132,305.659118 728.951622,305.891532 C729.530146,306.196616 730.256853,306.069607 730.809665,305.699054 C730.99371,305.575318 731.016039,305.435869 731.213617,305.416229 C731.530959,304.683634 731.345561,306.498427 731.384129,306.498427 C731.724477,306.500391 731.524869,304.832248 732.008664,305.852905 C732.092567,305.883676 732.206242,305.799876 732.286085,305.768451 C732.489752,305.685305 733.947226,304.597215 733.964819,305.429977 L734.527103,304.13566 C734.541313,304.823737 734.841062,304.973005 735.082621,305.009668 C735.351246,305.050259 735.343126,305.552404 735.48116,305.966166 C735.590098,306.290891 735.839101,304.574301 736.108402,304.576265 C736.113138,304.816535 736.019762,306.071571 736.117198,306.142277 C736.339811,306.303985 736.706548,305.805113 736.711284,305.328501 C736.713991,304.98479 736.518443,304.622093 736.753236,304.586085 C736.907509,304.562516 736.950814,304.641734 737.04013,304.916702 C737.189666,305.378257 737.014417,306.086629 737.147715,306.511521 C737.17275,306.590083 737.31958,305.856833 737.31552,305.877783 C737.432578,305.608707 737.578055,305.477769 737.748567,305.454855 C737.899457,305.43456 737.921786,305.706255 738.020575,305.556987 C738.168082,305.335702 738.216123,305.054187 738.304762,304.775945 C738.427233,304.395571 738.547675,305.647333 738.757432,305.264341 C738.859604,305.079065 738.86231,304.734699 738.984105,304.644352 C739.106576,304.554006 739.254759,304.591977 739.383997,304.592632 C739.055152,304.590668 738.609248,305.436524 739.150557,305.51836 C739.396853,305.555677 739.859672,305.375638 739.846139,304.738627 C739.871851,305.956346 741.414581,305.46533 741.80703,305.467949 C742.168354,305.469258 742.010698,304.88986 741.995135,304.174287 C742.150085,303.42467 742.200832,303.42467 742.388261,304.176251 C742.416679,305.496101 743.328785,305.912482 743.769951,305.907244 C744.014217,305.903971 744.294344,305.915755 744.456737,305.469913 C744.69153,304.825701 744.82618,304.620129 745.229455,304.622093 C744.807234,304.619474 744.657698,305.481043 745.178031,305.483662 C745.577246,305.484971 745.977138,305.494791 746.375,305.459438 C746.849322,305.417538 747.059756,305.370401 747.257333,304.416521 C747.170724,304.835521 747.076672,305.167448 747.161251,305.654535 C747.207262,305.922302 747.517162,306.112816 747.528665,305.743572 C747.542874,305.259759 747.832474,305.538001 748.032758,305.490208 C748.13696,305.464676 748.126134,304.992646 748.218157,304.825046 C748.357544,304.571682 748.505727,305.139951 748.644437,305.246665 C748.780441,305.35076 748.930654,305.373674 749.070041,305.340285 C749.218901,305.304932 749.411066,305.185124 749.461814,304.840104 C749.512561,304.493774 749.68781,304.643698 749.866442,304.644352 C749.890801,305.212621 749.786599,305.369746 750.108678,305.143879 C750.296106,305.012287 750.478121,304.842723 750.652016,304.64828 C750.629011,304.701965 750.981538,304.254159 750.927407,304.589359 C750.908461,304.707857 750.808319,304.790348 750.857714,305.079719 C751.15611,305.081029 751.104009,304.915393 751.274522,304.584121 C751.388873,304.360218 751.683886,303.964132 751.802298,304.438781 C751.953864,305.04633 751.746813,305.180541 752.148735,305.429977 C752.365259,305.564843 752.667715,305.840466 752.888298,305.841121 C753.129181,305.841776 752.953932,305.397898 752.972201,305.149771 C752.99859,304.798859 753.188048,304.581502 753.326082,304.844687 C753.416751,305.017524 753.812583,305.380221 753.801757,304.91212 C753.827469,306.096449 754.749724,305.162865 754.978427,305.114418 C755.20104,305.065971 755.163825,305.283327 755.355313,305.401826 C755.57522,305.538001 755.813396,305.527526 756.036686,305.531454 C756.203138,305.534073 757.348683,305.325227 757.362216,305.966166 C757.658582,305.967476 757.736396,305.865999 757.742485,305.224405 C757.745192,304.929141 757.943446,304.360873 758.088923,304.361527 C758.063887,304.361527 758.220867,305.329155 758.282441,305.445035 C758.465809,305.795947 758.729021,305.762558 758.925245,305.543893 C759.096434,305.354034 759.291305,305.155663 759.48956,305.12031 C759.518655,305.115073 759.652629,305.601505 759.714203,305.67483 C760.042371,306.063715 759.995007,304.271835 760.273104,304.265288 C760.678409,304.267252 760.29408,305.517705 760.564058,305.693162 C761.026877,305.994318 761.473456,304.81588 761.848989,304.519962 C761.920713,304.463659 762.799663,304.076738 762.444429,304.703274 C762.042507,304.70131 761.948455,305.21393 762.368646,305.473187 C762.508033,305.559605 762.983708,305.499374 762.922811,304.959257 C762.905895,304.80606 762.654186,304.267907 762.757035,304.076084 C762.775304,304.042695 763.543963,305.807732 763.619069,305.247319 C763.666434,304.895752 763.59065,304.508177 763.655608,304.154646 C763.716505,303.822065 763.881604,303.672796 763.989189,303.427289 C764.008135,304.30326 763.97498,304.69149 764.426296,304.709821 C764.539971,304.714404 765.193601,304.302606 764.981138,303.860037 L765.374263,303.862001 C765.398622,304.179524 765.309983,304.561862 765.407418,304.836176 C765.529889,305.179232 765.782951,305.249938 765.95414,305.132094 C766.351325,304.859745 766.430492,303.376223 766.768133,304.721605 C766.799259,306.191379 767.076003,304.403427 767.375752,304.404737 C767.58145,304.405391 767.885936,305.230952 768.032766,304.967113 C768.067274,304.905573 768.320336,304.127804 768.31154,304.101617 C768.4604,304.571027 768.284475,304.793621 768.604523,305.079065 C768.75,305.208693 769.047043,305.386113 769.114707,304.950746 C769.174928,304.566445 769.456408,304.73339 769.658046,304.734699 C769.78187,304.734699 769.816379,303.882296 770.091093,303.883606 L770.109362,304.736009 C770.253485,304.736663 770.503164,304.767434 770.493015,304.311771 C770.65879,303.93729 770.705478,303.937945 770.886817,304.313081 C771.059359,304.31439 771.082365,304.263324 771.073568,303.888843 C771.064095,303.433181 771.313774,303.463951 771.457898,303.464606 L771.489023,304.914738 C771.476843,304.343851 772.100025,304.241065 772.295573,304.254813 C772.572994,304.274454 772.572317,304.696727 772.770571,304.813262 C773.635989,305.321299 774.533885,305.178577 775.410805,305.181851 C775.410805,305.181851 775.471026,305.606743 775.630712,305.607398 C775.775512,305.608052 775.920312,305.575973 776.063759,305.547821 C776.527255,305.456819 776.989397,305.333738 777.450186,305.207384 C778.069308,305.037819 778.733088,304.969732 779.336647,304.662684 C779.58159,304.537638 779.831945,304.469551 779.955769,304.106199 C780.042379,303.852181 780.266345,303.929434 780.39423,303.929434 C780.273112,303.929434 780.171616,304.225352 780.343482,304.299332 C780.701422,304.453838 781.099961,304.360218 781.458578,304.354981 C781.612174,304.353016 782.038455,304.465623 782.134537,304.108818 C782.202878,303.855454 782.059431,302.971626 782.052664,302.668506 C782.345648,302.669815 782.438347,303.492103 782.466766,303.96937 C782.506011,304.639115 782.80982,304.362182 783.102804,304.363491 C783.48172,304.364801 783.909354,304.265288 784.28218,304.49312 C784.35255,304.535674 784.455399,304.79493 784.489907,304.784455 C784.685455,304.724224 784.784244,304.411284 784.935811,304.194582 C785.253153,303.740229 785.727475,304.51407 786.067146,304.627985 C786.444709,304.755649 786.508989,304.208985 786.677472,303.645954 C786.982634,302.625951 786.921061,304.188035 786.954216,304.43027 C787.041502,305.065316 787.422448,303.873131 787.467106,303.805043 C787.774975,303.334978 787.881884,304.327484 788.10382,304.556624 C788.377181,304.837485 788.730385,304.675123 789.00307,304.559243 C789.168845,304.489191 790.139142,304.039421 790.156057,304.808024 C790.377994,304.95402 790.633086,304.741901 790.842843,304.634532 C791.629771,304.232554 792.468799,304.311116 793.263847,303.94711 C793.538561,303.82141 793.863346,303.574593 793.84846,302.883243 C793.85658,303.263617 793.814628,303.835159 793.996644,304.086559 C794.14618,304.29344 794.22061,303.941218 794.378266,304.013888 C794.474349,304.063645 794.569078,304.123221 794.662453,304.193273 C795.058962,304.471515 795.437202,304.404737 795.84589,304.406046 C796.010312,304.040076 796.778971,304.102926 796.787767,304.05317 C796.915651,303.281948 796.778971,302.408595 796.949483,301.603329 C796.994141,301.390556 797.554396,302.292061 797.281711,302.979482 C796.994818,303.704876 797.214724,303.992938 797.60582,303.994248 C797.766183,303.994248 798.049693,304.049242 798.160662,303.754632 C798.251331,303.511743 798.19517,303.332359 798.404251,303.453476 C798.561907,303.545132 799.285907,304.584776 799.195915,305.000502 C799.318386,304.433543 799.439504,304.428306 799.778498,304.418485 C800.074188,304.410629 800.338753,304.36742 800.603318,304.089177 C800.670305,304.019126 800.919983,303.552334 800.963965,303.640717 C801.043131,303.80177 801.154099,304.273799 801.258301,304.310462 C801.468735,304.384441 801.631128,304.006687 801.832089,304.007342 L802.519551,304.009306 C802.832833,304.644352 802.881551,303.610601 802.912,303.24594 C802.946508,302.824321 803.102135,302.766709 803.279413,302.768018 C803.297006,303.633515 803.245581,303.907829 803.671185,303.973298 C804.426311,304.089832 805.19091,304.027637 805.944682,304.013888 C805.998813,304.012579 806.810777,304.062335 806.682892,303.710113 C806.462986,303.103873 806.926481,303.129406 807.096994,303.247249 C807.267506,303.365748 807.173453,303.728445 807.298631,303.899318 C807.394713,304.030256 807.54019,304.016507 807.645069,304.020435 C807.84603,304.028292 808.429967,304.227316 808.57612,303.831231 C808.708741,303.471153 808.888049,303.725171 809.117429,303.562809 C809.252756,303.467224 809.394173,302.894373 809.471986,302.895028 C809.546416,302.895028 809.61611,303.293078 809.696629,303.406339 C809.918566,303.719279 810.18922,303.806353 810.445665,303.784748 C810.834054,303.752668 811.283341,303.711423 811.66361,303.561499 C811.865924,303.481628 811.935618,303.219753 811.926145,302.800753 C812.336186,301.909068 810.894275,300.309667 811.131774,302.387645 C811.120271,301.858658 810.150652,301.970609 809.961194,301.352584 C809.824513,300.91067 809.791358,301.281223 809.626936,301.436384 C809.452364,301.600711 809.249373,301.515601 809.066681,301.595473 C808.180288,301.983703 807.199842,301.919543 806.289767,301.782714 C805.715979,301.69695 804.434431,300.769912 804.453377,302.593871 C804.45473,302.690765 804.360678,303.930743 804.263242,303.536621 C804.175956,303.181781 804.064988,302.757543 804.056191,302.356875 C804.052808,302.176181 803.85523,300.018986 803.826135,300.063505 C803.755088,300.171528 803.815986,300.348948 803.677275,300.455662 C803.538565,300.563031 803.382262,300.591837 803.232725,300.591183 C803.007405,300.589219 802.643375,300.583326 802.631196,300 C802.654201,301.095292 802.153491,300.297228 802.081767,301.167962 C802.041169,301.649812 801.891633,302.662614 801.58241,301.806937 C801.438287,301.408233 801.50595,300.968283 801.290103,300.630464 C801.144626,300.403287 800.946372,300.419655 800.896978,300.822942 C800.8442,301.253726 800.792099,301.095292 800.55054,301.093328 C800.426716,301.093328 800.495056,300.822942 800.445661,300.61868 C800.254173,299.833709 799.660764,301.395139 799.304177,300.6704 C799.053821,300.669091 798.746628,301.82134 798.667462,301.592854 C798.626187,301.474356 798.506423,300.731286 798.423196,300.820978 C798.272307,300.983995 798.379215,301.505126 798.219529,301.742123 C798.219529,301.742123 798.145099,301.404959 798.074052,301.064522 C798.003682,300.724084 797.933312,300.385611 797.929929,300.399359 C797.789188,301.054047 797.548983,301.488759 797.151121,301.073687 C796.967752,300.882519 796.747169,300.718847 796.544178,300.763366 C796.468395,300.779733 796.243075,301.067795 796.444713,301.069105 L795.979187,301.066486 C795.657108,301.064522 795.909494,301.095292 795.758604,301.430492 C795.649665,301.671417 795.107003,301.146358 794.964233,301.090709 C794.772068,301.016075 794.376236,300.819014 794.217227,301.14112 C794.08393,301.412161 794.209784,302.270456 793.818688,301.471737 C793.676595,300.915253 793.191447,300.553866 793.425563,301.469119 C793.442479,302.265873 793.167764,302.457696 792.879517,301.950314 C792.680586,301.598092 792.67991,300.982031 792.3037,301.353239 C792.257689,301.399722 791.765775,302.353601 791.739386,302.186001 C791.71841,302.046553 792.070261,301.516911 791.896365,301.275986 C791.745475,301.066486 791.369942,301.732958 791.272507,301.875679 C791.039744,301.87437 790.771796,301.915615 790.565422,301.607912 C790.370551,301.316576 790.231164,301.176473 789.988928,301.14243 C789.726394,301.105767 789.449649,301.156833 789.205384,301.348001 C788.957735,301.541789 788.851503,302.110057 788.678284,301.61184 C788.485443,301.056011 788.151862,300.914598 787.865645,301.067795 C787.661977,301.176473 787.730994,301.679273 787.738437,302.026912 C787.712048,300.798719 786.893319,301.138501 786.666645,301.687784 C786.540115,301.993523 786.274873,301.995487 786.174054,301.58107 C786.107744,301.306756 786.314795,301.15225 786.191647,300.898886 C786.072559,300.654033 785.941292,301.049464 785.856036,301.156833 C785.653721,301.411506 785.343822,301.372225 785.161807,300.997744 C785.146244,300.267767 784.80522,301.294972 784.678012,301.363059 C784.35864,301.534587 783.965514,301.191531 783.699596,301.587617 C783.460744,301.944422 783.091301,301.857348 782.817263,301.743433 C782.500597,301.61184 781.955905,301.223611 781.682545,301.736886 C781.581049,301.92609 781.396327,301.281223 781.286712,301.158142 C781.107404,300.955189 781.036357,301.394484 780.821863,301.393175 C780.580981,301.391865 780.321829,301.340145 780.08636,301.441622 C779.828562,301.552264 779.919231,302.007926 779.620158,301.630826 C779.336647,301.272058 778.668808,300.645522 778.697226,301.982393 C778.668131,300.608205 777.106455,301.06714 776.803999,301.607258 C776.551614,302.059647 776.151722,299.928639 775.851972,301.1732 C775.718675,301.725756 775.666574,302.435437 775.352614,301.784678 C775.261269,301.784023 774.650266,301.852765 774.692894,301.939839 C774.665152,301.88419 774.861377,301.574523 774.70575,301.408887 C774.580573,301.27664 774.395851,301.357167 774.26526,301.351929 C773.908673,301.337526 773.499985,300.80723 773.172493,300.921145 C773.495249,301.264856 773.669144,302.471445 773.414052,303.048879 C773.089267,303.046915 773.259779,302.1788 773.272635,301.892047 C773.294288,301.421326 772.840942,301.793189 772.698171,301.715936 C772.564197,301.643265 772.293543,300.88972 772.224526,301.101184 C772.139947,301.361095 772.111528,301.774858 771.899064,301.622315 C771.576985,301.391865 771.362492,300.927037 771.010641,300.906742 C771.24611,301.397103 769.764278,301.268129 769.616094,301.397103 C769.517982,301.482212 769.754805,302.235757 769.586322,302.529057 C769.367092,302.911395 769.25883,301.718554 769.253417,301.463881 C769.259507,301.740159 769.153952,302.264564 768.988176,301.986322 C768.83661,301.730993 768.90495,301.21379 768.753383,301.052083 C768.658654,300.951261 768.550393,302.140173 768.282445,302.0112 C768.208691,301.975192 767.779704,300.945369 767.795267,301.40365 C767.804063,301.670762 767.983372,301.903176 767.793237,302.113331 C767.731663,302.181418 767.643024,302.193203 767.58145,302.091726 C767.406878,301.806937 767.599042,300.966319 767.35613,300.89954 C767.191707,300.853712 766.967064,300.819669 766.810085,300.933584 C766.778283,300.957153 766.747158,301.050119 766.723475,301.137192 C766.699793,301.22492 766.682877,301.306101 766.678817,301.306101 C766.371625,301.304137 766.052929,301.250453 765.751826,301.359131 C765.392532,301.489414 765.350581,301.881572 765.73085,302.154576 C765.44734,302.159159 765.163829,302.197786 764.935803,301.723137 C764.754464,301.344728 764.458774,300.750926 764.211126,301.15225 C764.028434,301.448169 764.026404,301.655704 763.756426,301.715936 C763.660344,301.715281 763.458706,301.645229 763.363301,301.713972 C763.365331,301.828542 763.380893,302.022329 763.322026,302.087798 C763.088587,302.3464 762.705611,302.086489 762.443076,302.263254 C762.179864,302.440675 761.97146,302.845271 761.769823,302.313011 C761.645999,301.984357 761.066798,302.015128 760.95786,302.343781 C760.836065,302.709751 761.277909,302.986029 761.359782,302.986029 C761.166264,302.985375 760.963273,303.018109 760.782611,302.802062 C760.618188,302.605001 760.516693,302.280931 760.327235,302.17749 C760.00448,302.002034 759.9199,302.608929 759.612031,302.298607 C759.4855,302.170943 759.106584,300.9637 759.053129,301.802354 C759.021327,302.295334 758.987496,303.149701 758.644441,302.59649 C758.433331,302.256707 758.425211,301.937875 758.150497,301.767656 C758.063211,301.713317 757.404844,301.498579 757.393341,301.834434 C757.385221,302.071431 757.640313,303.094053 757.267487,302.957223 C756.992773,302.857056 757.166668,302.231829 757.063143,301.903831 C757.071939,301.930673 756.816171,302.715643 756.784369,302.780457 C756.60303,303.15101 756.553636,302.92056 756.455524,302.601728 C756.308694,302.121187 755.666566,301.7598 755.43854,301.965372 C755.169915,302.207606 755.498084,303.647263 755.372906,303.664285 C755.186831,303.689818 755.153676,303.226299 755.050151,303.023346 C754.904674,302.736593 754.69424,302.600418 754.508165,302.54477 C754.24766,302.466862 753.725297,301.499234 753.537192,301.708079 C753.442463,301.814139 753.289544,302.602382 753.188048,302.32414 C753.099409,302.081251 753.094672,301.839672 752.914687,301.801045 C752.49382,301.710698 752.351726,303.020728 751.955894,303.100599 C751.54044,303.185054 751.318503,301.74867 751.007927,301.746706 C750.896282,301.746051 751.08168,302.392228 751.120249,302.392228 C750.869217,302.390918 750.810349,301.692367 750.594502,301.750634 C750.311668,301.826578 750.111384,302.063575 749.810958,302.062265 C749.956435,302.06292 749.607967,302.09369 749.503088,302.309082 C749.366408,302.589289 749.261529,302.462279 749.11064,302.340507 C748.813596,302.101547 748.42859,302.157195 748.147786,302.400739 C748.039525,302.494359 747.6985,303.420742 747.674141,303.018109 C747.6261,302.229211 747.610537,301.395794 747.200496,302.195822 C746.945404,302.693384 746.653774,303.876404 746.254559,303.200112 C746.038035,302.832178 745.86211,302.242959 745.586042,302.092381 C745.320125,301.946386 745.296442,302.360148 745.100894,302.358839 C744.926999,302.358184 744.759193,301.710043 744.54673,301.708734 C744.506808,301.708734 744.462827,302.131007 744.423582,302.211534 C744.105563,302.855092 743.823406,301.38139 743.58117,301.380081 C743.711761,301.380736 743.815286,303.322539 743.313899,302.510726 C743.033095,302.056373 743.121057,302.024293 742.735375,302.021675 C742.554713,301.861276 742.533061,301.756526 742.523588,301.302173 C742.548623,302.48192 741.545849,301.543753 741.568854,302.62857 C741.555322,301.974537 740.862446,302.104165 740.670958,302.153922 C740.505859,302.197131 740.3367,302.274384 740.189194,302.439365 C740.19393,302.418415 740.046423,303.15101 740.022064,303.071793 C739.922599,302.754925 739.982143,301.939184 739.9747,301.574523 C739.834636,301.895975 739.643148,302.050481 739.614053,302.546734 C739.582251,303.06852 739.559922,303.730409 739.23446,303.728445 C739.22837,303.457404 739.313627,302.40794 739.216868,302.258017 C739.057858,302.011854 738.8684,302.642973 738.823065,302.862948 C738.670146,302.862293 738.517903,302.8492 738.377162,302.678326 C738.281757,302.563756 738.135603,302.103511 738.020575,302.102856 C737.816231,302.101547 737.820291,303.135298 737.678197,303.031857 C737.648425,303.010907 737.532721,302.64952 737.46438,302.580778 C737.362885,302.476682 737.25124,302.445257 737.141625,302.431509 C736.854055,302.396156 736.658507,302.682909 736.380409,302.734629 C736.148323,302.778493 736.059684,302.252125 735.866843,302.468826 C735.733545,302.61744 735.677385,302.8073 735.684151,303.115657 C735.667235,302.335925 735.667235,301.981084 735.266666,301.97912 C735.274109,302.024293 735.278169,302.502215 735.276139,302.411214 C735.03661,302.409904 734.174576,302.093036 734.033836,302.531676 C734.020303,302.57554 734.23209,303.539895 734.035866,303.44431 C733.860617,303.358546 733.645447,302.855746 733.458018,302.704514 C732.997229,302.331996 732.451861,302.119878 731.971449,302.254089 C731.712974,302.326759 731.571557,302.778493 731.304963,302.813846 C730.884095,302.869495 730.92537,303.169996 730.783953,303.859382 C730.833347,303.619112 730.17904,302.126425 730.096491,302.888481 C730.047096,303.349381 730.755534,304.215532 730.6899,304.717023 C730.6899,304.717023 730.550513,304.508177 730.407067,304.284274 C730.26362,304.060371 730.116113,303.825338 730.097844,303.787367 C729.888763,303.346762 729.584277,302.740521 729.570068,302.089107 C729.593073,303.169342 729.057178,302.665232 728.808852,303.239393 C728.448205,303.237429 728.454972,303.113693 728.479331,302.486503 C728.500983,301.934601 728.19582,302.148684 728.1877,301.761109 L728.228299,303.669523 C727.89404,303.667559 727.743827,302.138864 727.707289,302.191893 C727.507681,302.481265 727.201165,303.520254 726.910888,302.955259 C726.694365,302.532331 725.819474,301.679928 725.663848,302.650175 C725.594155,303.082923 725.071115,302.572921 724.903986,303.03644 C724.596793,303.887534 724.529806,302.411868 724.317342,302.295334 C724.07443,302.161778 723.974964,302.808609 723.741525,302.772601 C723.458015,302.730046 723.527031,302.485193 723.55748,302.095 C723.593342,301.644575 723.190743,302.110057 723.166384,302.160468 C723.019554,302.462934 722.963394,302.24165 722.859192,302.165706 C722.53576,301.929364 722.921442,304.480681 722.484335,302.991267 C722.250896,302.193857 721.842884,302.223318 721.606738,302.840034 C721.340144,303.536621 721.148656,303.723207 720.921983,302.605656 C720.788685,301.94704 720.124229,303.293732 719.948304,302.583396 C720.089044,303.152974 719.090329,304.571682 719.374516,303.189637 C719.346097,301.871097 718.933349,302.943475 718.636306,303.041023 C718.461734,303.098635 718.218145,303.138571 718.052369,302.929726 C717.952904,302.804026 718.002298,302.5978 717.859528,302.572267 C717.651124,302.534295 717.007643,302.775875 717.019823,303.353309 C717.008997,302.851164 717.041475,302.360148 716.749168,302.315629 C716.57392,302.288787 716.304619,303.082268 716.213949,302.556554 C716.220716,302.598454 716.029228,302.728737 716.025844,302.919251 C716.021785,303.202076 715.858715,302.978173 715.800525,302.917942 C715.479799,302.583396 715.027806,302.112022 715.056902,303.45544 C715.051489,303.206659 715.029836,302.161778 714.810606,302.634462 C714.619795,303.043642 714.675279,303.164759 714.380942,303.162795 C714.557544,303.164104 714.495294,302.242304 714.255765,302.186656 C714.0636,302.142792 713.866699,302.228556 713.688067,302.358839 C713.302384,302.639045 713.290205,302.825631 713.290882,303.590306 C712.933618,303.588996 713.008724,303.419432 712.875427,302.881934 C712.874074,302.888481 712.834829,303.082268 712.790848,303.29897 C712.74822,303.515671 712.704915,303.756596 712.707621,303.858727 C712.691382,303.112384 712.58921,302.558518 712.468092,301.852111 C712.292844,302.255398 712.14263,302.623987 712.002567,303.082268 C711.765744,303.859382 711.373295,303.522873 711.023474,303.315992 C710.840106,303.206659 710.17159,302.795515 710.151291,303.506506 C710.133698,304.097688 710.170913,304.713749 710.183769,305.30886 C709.900935,305.308205 709.963862,304.216841 709.955743,303.830576 C709.965892,304.330102 709.555851,303.526801 709.547731,303.137262 C709.540288,302.819084 709.542318,302.269147 709.332561,302.268492 L709.373159,304.180179 C709.35083,303.139881 708.270919,303.13006 707.975229,303.128751 C708.185663,303.129406 708.183633,303.679343 708.190399,303.997521 C707.789154,303.922232 707.568571,302.246232 707.188978,303.124823 C707.157176,303.277365 706.834421,304.186071 706.757284,303.609946 C706.724129,303.364439 707.013729,302.422343 706.727512,302.512036 C706.415583,302.608929 706.331004,303.139881 705.945321,302.949367 C705.651661,302.804681 705.409425,302.483229 705.099526,302.511381 C704.746999,302.542806 704.523032,303.543823 704.962845,303.546442 C704.761885,303.545132 704.546038,303.598162 704.347107,303.488829 C704.155619,303.383424 704.061566,303.056081 703.904587,302.840689 C703.802415,302.70124 703.68671,302.849854 703.597394,302.946093 C703.382224,303.177853 703.462743,303.486865 703.47357,303.972643 C703.619046,303.634824 703.725955,303.871167 703.605514,304.207676 C703.509431,304.474134 703.32471,304.71244 703.15961,304.595905 C702.846328,304.374621 703.369368,303.229573 702.994511,303.251178 C702.829412,303.260998 701.984294,303.679343 702.228559,304.238446 C702.422754,304.682979 702.531016,304.785765 702.321935,305.268269 C702.192698,305.567462 701.976174,305.78089 701.809722,305.428668 C701.562073,304.906227 701.868589,303.229573 701.777243,303.141845 C701.608084,302.980792 701.361112,303.102564 701.223755,303.310754 C701.036327,303.594234 701.200073,304.034838 701.03971,304.319627 C700.737253,304.857126 700.767025,302.982101 700.488251,303.361165 C700.221657,303.722553 700.140461,304.34647 700.15467,304.99461 C700.14452,304.530437 700.188502,303.92747 700.057234,303.521563 C699.909728,303.063937 699.525398,302.417106 699.270307,302.703859 C699.183697,302.801407 699.464501,303.333014 699.281133,303.592924 C699.134303,303.802424 698.90966,303.755287 698.74253,303.659703 C698.552396,303.55037 698.39271,303.049534 698.228287,303.085542 C697.968459,303.141845 697.993494,304.07281 697.717427,303.753978 C697.574657,303.589651 697.525939,302.550007 697.327685,302.976864 C697.12537,303.410921 697.177471,304.374621 696.799908,304.373312 L696.788406,303.826648 C696.737658,303.585068 696.76134,303.458059 696.860129,303.444965 C696.892608,303.243321 696.25657,303.803079 696.179433,303.82141 C695.970353,303.869857 695.861414,303.417468 695.677369,303.554298 C695.470319,303.707495 695.459493,303.932707 695.21861,303.931398 C694.964872,303.930088 694.893825,303.923542 694.673241,303.685235 C694.345073,303.330395 694.238164,304.25154 693.947888,304.250231 C693.642725,304.248921 693.521607,303.272782 693.23945,303.271473 C693.008717,303.270164 692.901808,304.005377 692.702201,304.174287 C692.400421,304.428306 692.446432,302.958532 692.439666,302.616786 C692.26983,303.008943 692.104731,303.347417 691.98835,303.824029 C691.719049,304.927832 691.681157,303.934017 691.665594,303.209278 C691.689277,304.279037 690.886786,303.520254 690.903702,304.343851 C690.727777,303.971334 690.551175,303.521563 690.296083,303.473771 C690.308262,304.027637 690.172259,303.88426 689.961148,303.912412 C689.672901,303.950384 689.524041,304.662029 689.265566,304.66072 C689.201286,304.660065 688.636971,302.714989 688.494201,303.512398 C688.4421,303.807007 688.815603,305.496755 688.444807,304.922595 C688.214751,304.566445 688.187685,304.248921 687.965749,304.762851 C687.969808,304.741246 687.822978,305.477115 687.797943,305.398552 C687.664645,304.971696 687.987401,303.981809 687.869666,303.732373 C687.833128,303.656429 687.672765,304.075429 687.663969,304.09376 C687.535408,304.387715 687.466391,304.326174 687.286406,304.32552 C687.435266,304.326174 687.358806,303.975917 687.353393,303.71666 C687.362866,304.141552 687.094918,303.795878 686.964327,303.890807 C686.966357,304.006687 686.98192,304.203093 686.923052,304.269871 C686.722768,304.495084 686.399336,304.503595 686.373624,304.002759 C686.337086,303.289804 685.770741,303.221062 685.784951,303.884915 C685.622558,304.002104 685.189511,303.61191 685.204397,304.315045 C684.761877,303.836468 683.742863,302.333306 683.426197,303.873131 C683.411311,301.061248 682.814518,304.893134 682.594612,304.403427 C682.40583,303.981809 682.290126,302.978828 681.957221,303.617148 C681.873318,303.776892 681.482222,305.282018 681.508611,305.366473 C681.334039,304.808679 681.556652,304.115365 681.046469,304.301296 C680.756192,304.40801 681.036319,305.160901 680.702737,305.159591 C680.694618,304.762851 680.757545,303.788021 680.584326,303.500613 C680.444939,303.269509 680.075496,303.397173 680.084969,303.856763 C680.093088,304.239101 679.46314,304.315045 679.360292,304.332721 C679.170833,304.364801 678.628171,304.492465 678.523969,303.954967 C678.388642,303.260998 678.138287,302.828904 677.784406,303.296351 C677.615924,303.519599 677.621337,304.029601 677.388574,304.11471 C677.179494,304.190654 676.941994,303.985082 676.744417,303.841051 C676.696376,303.814863 675.822838,303.366403 675.889825,303.657084 C676.140857,304.752376 675.315361,304.017162 675.044707,303.96806 C674.832243,303.929434 674.60963,303.912412 674.401226,303.998176 C674.186056,304.087213 674.23951,304.127149 674.279432,304.323556 C674.326796,304.557279 673.920815,304.26136 673.889013,304.26267 C673.746242,304.269216 673.601442,304.294749 673.466115,304.38706 C673.317255,304.488537 672.855113,305.091504 672.825341,304.474788 C672.792186,303.770999 672.395677,303.693746 672.151411,303.875095 C671.895643,304.064299 672.183213,304.685598 671.848955,304.684288 C671.842189,304.23059 671.89226,303.819446 671.633785,303.818792 C671.22239,303.816828 671.982929,305.705601 672.225841,305.866654 Z M686.795168,305.189707 C687.001542,305.185779 687.185587,305.055496 687.197767,305.625074 L687.000866,305.624419 L686.795168,305.189707 Z M712.541846,305.321299 L713.131872,305.324573 C713.139992,305.706255 713.117663,305.757976 712.944444,305.757321 C712.800321,305.756666 712.551995,305.785472 712.541846,305.321299 Z M720.394207,304.927832 C720.253466,305.253212 720.070775,305.012287 720.25482,304.677741 C720.366465,304.474134 720.471343,304.296059 720.572162,304.062335 C720.578928,304.380513 720.60464,304.929141 720.394207,304.927832 C720.207455,305.36058 720.591108,304.929141 720.394207,304.927832 Z M725.869545,303.657084 C726.161175,303.658393 726.137493,304.524545 725.888491,304.523235 C725.751134,304.234518 725.544083,303.750704 725.869545,303.657084 Z M756.735651,304.248266 C757.038784,304.172977 757.133513,304.459731 757.147046,305.107871 L756.950821,305.107216 C756.847296,304.883968 756.742417,304.571682 756.735651,304.248266 Z M769.885395,303.456749 C770.001777,303.193565 770.070794,302.914668 770.269725,303.032512 C770.276491,303.344798 770.301527,303.884915 770.091093,303.883606 L769.885395,303.456749 Z M799.476719,303.373604 C799.576861,303.028584 799.773085,303.168687 799.946981,303.169342 C799.95307,303.474426 799.978106,304.001449 799.767672,304.000795 C799.584304,304.00014 799.342068,303.840396 799.476719,303.373604 Z M805.150312,302.152612 C805.250454,301.809556 805.446678,301.949004 805.619897,301.950314 C805.625987,302.253434 805.651022,302.777184 805.440589,302.776529 C805.25722,302.775875 805.014985,302.616786 805.150312,302.152612 Z M689.013181,307.80191 C689.128886,307.534143 689.254064,307.367852 689.191136,306.935758 C688.799364,306.933794 688.748616,307.244116 689.013181,307.80191 Z M690.183085,307.374399 C690.432763,307.375708 690.455769,306.508902 690.164816,306.507593 C689.904987,306.542946 689.971974,307.337082 690.183085,307.374399 Z M708.377151,308.928627 C708.510448,309.334533 708.69314,309.205559 708.891394,309.206869 C708.883275,308.825186 708.858916,308.772811 708.685697,308.772156 C708.665398,308.772156 708.300691,308.696867 708.377151,308.928627 Z M746.487998,302.904848 C746.491381,302.953295 746.673397,303.336942 746.693696,303.336942 C746.839849,303.337596 746.902776,302.686182 746.871651,302.476028 C746.727527,302.475373 746.477849,302.443948 746.487998,302.904848 Z M751.373987,301.641301 C751.413232,303.490138 752.077012,301.645229 751.570888,301.642611 C751.511344,301.608567 751.434884,301.641301 751.373987,301.641301 Z M801.466029,300.684148 C801.50392,302.468826 802.169053,300.688076 801.66293,300.684803 C801.603386,300.652069 801.527602,300.684148 801.466029,300.684148 Z" id="Fill-1" fill="#35E2A1"></path>
    </g>
</svg>